<svg width="358" height="510" viewBox="0 0 358 510" fill="none" xmlns="http://www.w3.org/2000/svg">
<path fill-rule="evenodd" clip-rule="evenodd" d="M0 20C0 8.9543 8.9543 0 20 0H347C347 0 296 152 337 272C378 392 337 510 337 510H20C8.9543 510 0 501.046 0 490V20Z" fill="#2D415E"/>
<mask id="mask0_1871:1611" style="mask-type:alpha" maskUnits="userSpaceOnUse" x="0" y="0" width="356" height="510">
<path fill-rule="evenodd" clip-rule="evenodd" d="M0 20C0 8.9543 8.9543 0 20 0H347C347 0 296 152 337 272C378 392 337 510 337 510H20C8.9543 510 0 501.046 0 490V20Z" fill="white"/>
</mask>
<g mask="url(#mask0_1871:1611)">
<ellipse opacity="0.0312267" cx="81.4409" cy="446.5" rx="172.689" ry="172.5" fill="url(#paint0_linear_1871:1611)"/>
<circle opacity="0.0312267" cx="308.5" cy="357.5" r="239.5" fill="url(#paint1_linear_1871:1611)"/>
</g>
<defs>
<linearGradient id="paint0_linear_1871:1611" x1="-91.2482" y1="274" x2="-91.2482" y2="619" gradientUnits="userSpaceOnUse">
<stop stop-color="white" offset="100%"/>
<stop offset="1" stop-color="white" offset="100%" stop-opacity="0.01"/>
</linearGradient>
<linearGradient id="paint1_linear_1871:1611" x1="69" y1="118" x2="69" y2="597" gradientUnits="userSpaceOnUse">
<stop stop-color="white" offset="100%"/>
<stop offset="1" stop-color="white" offset="100%" stop-opacity="0.01"/>
</linearGradient>
</defs>
</svg>
